
      <svg data-logo="logo" xmlns="http://www.w3.org/2000/svg" viewBox="0 0 187.47000122070312 41">
        <g id="logogram" transform="
    translate(0, 0.5)
    rotate(0 20 20)
    
  "><path d="M20 0C25.3043 4.00466e-07 30.3919 2.10669 34.1426 5.85742C34.8157 6.53058 35.4354 7.24719 36 8H20C16.8174 8 13.7651 9.26421 11.5146 11.5146C9.26421 13.7651 8 16.8174 8 20H20L36.9102 9.31934C38.1656 11.3074 39.0611 13.5027 39.5547 15.8027L32 20H40L39.9941 20.4971C39.8669 25.6213 37.776 30.5092 34.1426 34.1426C30.3919 37.8933 25.3043 40 20 40C14.6957 40 9.60815 37.8933 5.85742 34.1426C5.18426 33.4694 4.56459 32.7528 4 32H20C23.1826 32 26.2349 30.7358 28.4854 28.4854C30.5952 26.3755 31.8383 23.5608 31.9854 20.5947L32 20H20L3.08984 30.6787C1.83452 28.6906 0.941002 26.4951 0.447266 24.1953L8 20H0C8.00931e-07 14.6957 2.1067 9.60815 5.85742 5.85742C9.60815 2.1067 14.6957 -5.79361e-10 20 0Z" fill="#0094F7"/></g>
        <g id="logotype" transform="translate(46, 6.81201171875)"><path fill="#8184f3" d="M13.52 27L8.31 27L8.31 1.54L18.24 1.54Q21.14 1.54 23.18 2.64Q25.21 3.74 26.28 5.68Q27.35 7.62 27.35 10.13L27.35 10.13Q27.35 12.66 26.26 14.58Q25.17 16.51 23.12 17.59Q21.06 18.68 18.12 18.68L18.12 18.68L11.73 18.68L11.73 14.47L17.28 14.47Q18.89 14.47 19.92 13.92Q20.95 13.36 21.46 12.39Q21.96 11.41 21.96 10.13L21.96 10.13Q21.96 8.85 21.46 7.88Q20.95 6.90 19.91 6.37Q18.87 5.84 17.26 5.84L17.26 5.84L13.52 5.84L13.52 27ZM33.72 27L28.59 27L28.59 7.89L33.72 7.89L33.72 27ZM31.15 5.40L31.15 5.40Q29.99 5.40 29.17 4.63Q28.35 3.86 28.35 2.77L28.35 2.77Q28.35 1.67 29.17 0.90Q29.99 0.13 31.15 0.13L31.15 0.13Q32.32 0.13 33.15 0.90Q33.97 1.66 33.97 2.77L33.97 2.77Q33.97 3.86 33.15 4.63Q32.32 5.40 31.15 5.40ZM44.35 27.38L44.35 27.38Q41.46 27.38 39.36 26.14Q37.27 24.90 36.13 22.68Q35.00 20.47 35.00 17.53L35.00 17.53Q35.00 14.56 36.13 12.35Q37.27 10.13 39.36 8.89Q41.46 7.65 44.35 7.65L44.35 7.65Q46.04 7.65 47.47 8.10Q48.91 8.54 50.02 9.36Q51.13 10.18 51.85 11.36Q52.57 12.54 52.84 14.01L52.84 14.01L48.07 14.90Q47.92 14.15 47.59 13.56Q47.27 12.97 46.81 12.55Q46.35 12.13 45.74 11.91Q45.13 11.69 44.40 11.69L44.40 11.69Q43.03 11.69 42.10 12.42Q41.17 13.16 40.70 14.47Q40.23 15.79 40.23 17.52L40.23 17.52Q40.23 19.22 40.70 20.53Q41.17 21.84 42.10 22.59Q43.03 23.34 44.40 23.34L44.40 23.34Q45.13 23.34 45.75 23.11Q46.36 22.88 46.84 22.45Q47.32 22.01 47.64 21.39Q47.97 20.78 48.11 20.01L48.11 20.01L52.87 20.88Q52.60 22.40 51.88 23.59Q51.16 24.78 50.05 25.63Q48.94 26.49 47.50 26.93Q46.05 27.38 44.35 27.38ZM59.45 27L54.24 27L54.24 1.54L64.17 1.54Q67.07 1.54 69.11 2.56Q71.14 3.59 72.21 5.45Q73.28 7.31 73.28 9.82L73.28 9.82Q73.28 12.34 72.19 14.16Q71.11 15.98 69.05 16.94Q66.99 17.91 64.05 17.91L64.05 17.91L57.31 17.91L57.31 13.69L63.21 13.69Q64.82 13.69 65.84 13.25Q66.87 12.82 67.38 11.95Q67.89 11.09 67.89 9.82L67.89 9.82Q67.89 8.53 67.38 7.65Q66.87 6.77 65.83 6.30Q64.80 5.84 63.19 5.84L63.19 5.84L59.45 5.84L59.45 27ZM74.18 27L68.41 27L62.20 15.41L67.86 15.41L74.18 27ZM83.37 27.38L83.37 27.38Q80.50 27.38 78.40 26.14Q76.30 24.90 75.16 22.68Q74.03 20.47 74.03 17.53L74.03 17.53Q74.03 14.56 75.16 12.35Q76.30 10.13 78.40 8.89Q80.50 7.65 83.37 7.65L83.37 7.65Q86.26 7.65 88.36 8.89Q90.45 10.13 91.59 12.35Q92.72 14.56 92.72 17.53L92.72 17.53Q92.72 20.47 91.59 22.68Q90.45 24.90 88.36 26.14Q86.26 27.38 83.37 27.38ZM83.37 23.34L83.37 23.34Q84.74 23.34 85.66 22.58Q86.59 21.82 87.05 20.50Q87.51 19.17 87.51 17.52L87.51 17.52Q87.51 15.82 87.05 14.51Q86.59 13.19 85.66 12.44Q84.74 11.69 83.37 11.69L83.37 11.69Q82.01 11.69 81.09 12.44Q80.18 13.19 79.72 14.51Q79.26 15.82 79.26 17.52L79.26 17.52Q79.26 19.17 79.72 20.50Q80.18 21.82 81.09 22.58Q82.01 23.34 83.37 23.34ZM102.56 27.38L102.56 27.38Q99.69 27.38 97.59 26.14Q95.49 24.90 94.35 22.68Q93.22 20.47 93.22 17.53L93.22 17.53Q93.22 14.56 94.35 12.35Q95.49 10.13 97.59 8.89Q99.69 7.65 102.56 7.65L102.56 7.65Q105.45 7.65 107.55 8.89Q109.64 10.13 110.78 12.35Q111.91 14.56 111.91 17.53L111.91 17.53Q111.91 20.47 110.78 22.68Q109.64 24.90 107.55 26.14Q105.45 27.38 102.56 27.38ZM102.56 23.34L102.56 23.34Q103.93 23.34 104.85 22.58Q105.78 21.82 106.24 20.50Q106.70 19.17 106.70 17.52L106.70 17.52Q106.70 15.82 106.24 14.51Q105.78 13.19 104.85 12.44Q103.93 11.69 102.56 11.69L102.56 11.69Q101.20 11.69 100.28 12.44Q99.37 13.19 98.91 14.51Q98.45 15.82 98.45 17.52L98.45 17.52Q98.45 19.17 98.91 20.50Q99.37 21.82 100.28 22.58Q101.20 23.34 102.56 23.34ZM118.34 27L113.21 27L113.21 7.89L117.96 7.89L118.22 12.64L117.84 12.64Q118.29 10.88 119.15 9.77Q120.01 8.66 121.17 8.13Q122.34 7.60 123.62 7.60L123.62 7.60Q125.68 7.60 126.95 8.91Q128.21 10.22 128.81 12.95L128.81 12.95L128.21 12.95Q128.64 11.12 129.61 9.94Q130.57 8.75 131.90 8.18Q133.22 7.60 134.67 7.60L134.67 7.60Q136.43 7.60 137.81 8.37Q139.19 9.14 139.98 10.59Q140.78 12.03 140.78 14.11L140.78 14.11L140.78 27L135.65 27L135.65 15.09Q135.65 13.46 134.77 12.68Q133.89 11.89 132.61 11.89L132.61 11.89Q131.65 11.89 130.94 12.31Q130.23 12.73 129.85 13.48Q129.46 14.23 129.46 15.24L129.46 15.24L129.46 27L124.51 27L124.51 14.95Q124.51 13.55 123.68 12.72Q122.85 11.89 121.53 11.89L121.53 11.89Q120.63 11.89 119.90 12.30Q119.17 12.71 118.76 13.51Q118.34 14.30 118.34 15.45L118.34 15.45L118.34 27Z"/></g>
        
      </svg>
    